<?xml version="1.0" encoding="UTF-8" standalone="no"?>
<!-- Created with Inkscape (http://www.inkscape.org/) -->

<svg
   xmlns:dc="http://purl.org/dc/elements/1.1/"
   xmlns:cc="http://creativecommons.org/ns#"
   xmlns:rdf="http://www.w3.org/1999/02/22-rdf-syntax-ns#"
   xmlns:svg="http://www.w3.org/2000/svg"
   xmlns="http://www.w3.org/2000/svg"
   xmlns:sodipodi="http://sodipodi.sourceforge.net/DTD/sodipodi-0.dtd"
   xmlns:inkscape="http://www.inkscape.org/namespaces/inkscape"
   width="60"
   height="380"
   viewBox="0 0 15.875001 100.54167"
   version="1.1"
   id="svg8"
   inkscape:version="0.92.2 (5c3e80d, 2017-08-06)"
   sodipodi:docname="SwitchedMux.svg">
  <defs
     id="defs2" />
  <sodipodi:namedview
     id="base"
     pagecolor="#ffffff"
     bordercolor="#666666"
     borderopacity="1.0"
     inkscape:pageopacity="0.0"
     inkscape:pageshadow="2"
     inkscape:zoom="2.5195862"
     inkscape:cx="-164.36516"
     inkscape:cy="246.94838"
     inkscape:document-units="mm"
     inkscape:current-layer="layer1"
     showgrid="false"
     units="px"
     inkscape:snap-bbox="true"
     inkscape:snap-page="true"
     inkscape:bbox-nodes="true"
     inkscape:snap-bbox-edge-midpoints="true"
     inkscape:window-width="1920"
     inkscape:window-height="1061"
     inkscape:window-x="-4"
     inkscape:window-y="-4"
     inkscape:window-maximized="1" />
  <metadata
     id="metadata5">
    <rdf:RDF>
      <cc:Work
         rdf:about="">
        <dc:format>image/svg+xml</dc:format>
        <dc:type
           rdf:resource="http://purl.org/dc/dcmitype/StillImage" />
        <dc:title />
      </cc:Work>
    </rdf:RDF>
  </metadata>
  <g
     inkscape:label="Layer 1"
     inkscape:groupmode="layer"
     id="layer1"
     transform="translate(0,-196.45832)"
     style="display:inline">
    <path
       style="opacity:1;vector-effect:none;fill:#000000;fill-opacity:1;fill-rule:evenodd;stroke:none;stroke-width:0.39687496;stroke-linecap:butt;stroke-linejoin:round;stroke-miterlimit:4;stroke-dasharray:none;stroke-dashoffset:0;stroke-opacity:1;paint-order:normal"
       d="M 0,196.45831 H 15.875 V 296.99999 H 0 Z"
       id="rect817"
       inkscape:connector-curvature="0" />
    <path
       style="font-style:normal;font-variant:normal;font-weight:normal;font-stretch:normal;font-size:medium;line-height:25px;font-family:LilyUPC;-inkscape-font-specification:LilyUPC;letter-spacing:0px;word-spacing:0px;fill:#ffffff;fill-opacity:1;stroke:none;stroke-width:0.26458332"
       inkscape:connector-curvature="0"
       id="path857"
       d="m 2.877054,199.6475 q 0,0.11265 0.186034,0.17053 0.187068,0.0568 0.376206,0.10542 0.190169,0.0486 0.331761,0.16846 0.141594,0.11886 0.146762,0.36484 0,0.24391 -0.08165,0.39274 -0.08165,0.14883 -0.229444,0.21808 -0.146762,0.0682 -0.357601,0.0827 -0.05064,0.004 -0.143661,0.004 -0.153995,0 -0.291454,-0.0227 -0.136427,-0.0227 -0.225311,-0.0496 -0.08888,-0.0279 -0.08888,-0.0331 l -0.07648,-0.30075 q 0.0011,0 0.09199,0.0393 0.09095,0.0393 0.218075,0.0724 0.128156,0.0331 0.283186,0.0372 0.250113,0 0.335896,-0.0806 0.08682,-0.0816 0.08682,-0.24598 0,-0.19534 -0.116789,-0.25632 -0.11679,-0.062 -0.380339,-0.11782 -0.262517,-0.0568 -0.394809,-0.1633 -0.132291,-0.10748 -0.132291,-0.37723 0.0062,-0.17157 0.09612,-0.28319 0.08992,-0.11162 0.235646,-0.16537 0.146761,-0.0548 0.328662,-0.063 0.302824,0 0.47439,0.0351 0.171564,0.0341 0.22841,0.0579 l 0.08061,0.31729 q 0,0 -0.08268,-0.0372 -0.08268,-0.0372 -0.211873,-0.0672 -0.129191,-0.031 -0.306956,-0.031 -0.172601,0 -0.270786,0.0413 -0.09818,0.0413 -0.109553,0.18707 z" />
    <path
       style="font-style:normal;font-variant:normal;font-weight:normal;font-stretch:normal;font-size:medium;line-height:25px;font-family:LilyUPC;-inkscape-font-specification:LilyUPC;letter-spacing:0px;word-spacing:0px;fill:#ffffff;fill-opacity:1;stroke:none;stroke-width:0.26458332"
       inkscape:connector-curvature="0"
       id="path859"
       d="m 5.898059,199.73225 -0.477491,1.4521 -0.457854,-1.07487 -0.436149,1.07487 -0.5333,-1.4521 h 0.402042 l 0.216006,0.62218 0.203608,-0.48679 -0.04238,-0.13539 h 0.423746 l 0.253214,0.60151 0.20774,-0.60151 z" />
    <path
       style="font-style:normal;font-variant:normal;font-weight:normal;font-stretch:normal;font-size:medium;line-height:25px;font-family:LilyUPC;-inkscape-font-specification:LilyUPC;letter-spacing:0px;word-spacing:0px;fill:#ffffff;fill-opacity:1;stroke:none;stroke-width:0.26458332"
       inkscape:connector-curvature="0"
       id="path861"
       d="m 5.983839,201.13785 v -1.40974 h 0.393777 v 1.40974 z m 0.199472,-1.97715 q 0.105421,0 0.16433,0.0661 0.05995,0.0661 0.05995,0.15813 0,0.0941 -0.06098,0.16123 -0.05994,0.0672 -0.167431,0.0672 -0.103354,0 -0.164332,-0.0672 -0.06098,-0.0682 -0.06098,-0.1571 0,-0.0909 0.06098,-0.15916 0.06098,-0.0693 0.168465,-0.0693 z" />
    <path
       style="font-style:normal;font-variant:normal;font-weight:normal;font-stretch:normal;font-size:medium;line-height:25px;font-family:LilyUPC;-inkscape-font-specification:LilyUPC;letter-spacing:0px;word-spacing:0px;fill:#ffffff;fill-opacity:1;stroke:none;stroke-width:0.26458332"
       inkscape:connector-curvature="0"
       id="path863"
       d="m 7.142426,199.90588 v 0.81752 q 0,0.12196 0.07235,0.17363 0.05168,0.0413 0.195336,0.0413 v 0.19948 q -0.01241,0.001 -0.04444,0.002 -0.03307,0.002 -0.07441,0.002 -0.271817,0 -0.397909,-0.093 -0.148828,-0.10128 -0.148828,-0.34313 v -0.79981 h -0.26665 v -0.17776 h 0.266649 v -0.56328 h 0.39791 v 0.56328 h 0.267684 v 0.17776 z" />
    <path
       style="font-style:normal;font-variant:normal;font-weight:normal;font-stretch:normal;font-size:medium;line-height:25px;font-family:LilyUPC;-inkscape-font-specification:LilyUPC;letter-spacing:0px;word-spacing:0px;fill:#ffffff;fill-opacity:1;stroke:none;stroke-width:0.26458332"
       inkscape:connector-curvature="0"
       id="path865"
       d="m 8.597634,201.07893 q 0,0.008 -0.119888,0.0331 -0.118856,0.0248 -0.303858,0.03 -0.258381,0 -0.409279,-0.0724 -0.150894,-0.0723 -0.218074,-0.23564 -0.06615,-0.16433 -0.06615,-0.44959 0.0083,-0.22737 0.07235,-0.37207 0.06511,-0.14469 0.205673,-0.21601 0.141592,-0.0723 0.377238,-0.0723 0.14986,0.003 0.268716,0.0258 0.119891,0.0227 0.171567,0.0372 l 0.04238,0.20361 q -0.03824,-0.0196 -0.14056,-0.0486 -0.10232,-0.0289 -0.25735,-0.032 -0.203605,0 -0.270785,0.13436 -0.06718,0.13436 -0.06718,0.34003 0,0.24805 0.05478,0.40411 0.05581,0.15503 0.228409,0.16744 0.137459,0 0.236678,-0.0238 0.09922,-0.0238 0.159163,-0.0517 0.06098,-0.0289 0.06098,-0.0351 z" />
    <path
       style="font-style:normal;font-variant:normal;font-weight:normal;font-stretch:normal;font-size:medium;line-height:25px;font-family:LilyUPC;-inkscape-font-specification:LilyUPC;letter-spacing:0px;word-spacing:0px;fill:#ffffff;fill-opacity:1;stroke:none;stroke-width:0.26458332"
       inkscape:connector-curvature="0"
       id="path867"
       d="m 8.749563,201.13785 v -1.97301 h 0.39791 v 0.65216 q 0,0 0,0 0,-0.001 0.04754,-0.0269 0.04961,-0.0258 0.130225,-0.0475 0.08165,-0.0217 0.194305,-0.0227 0.158129,0 0.260448,0.0476 0.10232,0.0465 0.147794,0.12195 0.04548,0.0755 0.04548,0.1602 v 1.0883 H 9.676643 v -1.01182 q 0,-0.12712 -0.05995,-0.17363 -0.05994,-0.0465 -0.20257,-0.0465 -0.08165,0.004 -0.141595,0.0351 -0.05891,0.03 -0.09198,0.0641 -0.03307,0.0331 -0.03307,0.0403 v 1.09244 z" />
    <path
       style="font-style:normal;font-variant:normal;font-weight:normal;font-stretch:normal;font-size:medium;line-height:25px;font-family:LilyUPC;-inkscape-font-specification:LilyUPC;letter-spacing:0px;word-spacing:0px;fill:#ffffff;fill-opacity:1;stroke:none;stroke-width:0.26458332"
       inkscape:connector-curvature="0"
       id="path869"
       d="m 10.502428,200.50326 q 0.0093,0.11162 0.07648,0.28215 0.06718,0.17053 0.244946,0.1788 0.217043,0 0.340032,-0.0548 0.122988,-0.0558 0.160197,-0.093 l -0.05994,0.24494 q 0,0.0217 -0.122992,0.0579 -0.122989,0.0351 -0.313158,0.0351 -0.07545,0 -0.117822,-0.004 -0.307993,-0.0227 -0.451654,-0.17674 -0.142626,-0.15503 -0.145727,-0.49609 0,-0.39067 0.162264,-0.57258 0.163298,-0.1819 0.47749,-0.185 0.377238,0 0.511599,0.19844 0.114721,0.16433 0.114721,0.44442 0,0.0527 -0.0031,0.0899 -0.0031,0.0362 -0.0052,0.0506 z m 0.288354,-0.60565 q -0.288354,0.009 -0.288354,0.41858 h 0.613916 q 0,-0.41858 -0.325562,-0.41858 z" />
    <path
       style="font-style:normal;font-variant:normal;font-weight:normal;font-stretch:normal;font-size:medium;line-height:25px;font-family:LilyUPC;-inkscape-font-specification:LilyUPC;letter-spacing:0px;word-spacing:0px;fill:#ffffff;fill-opacity:1;stroke:none;stroke-width:0.26458332"
       inkscape:connector-curvature="0"
       id="path871"
       d="m 12.756554,199.16484 v 1.97301 H 12.36278 v -0.0847 q -0.0217,0.0227 -0.09922,0.0579 -0.07752,0.0351 -0.219109,0.0351 -0.162264,-0.002 -0.292487,-0.0558 -0.129193,-0.0548 -0.214974,-0.21911 -0.08475,-0.16433 -0.08475,-0.47439 0.0052,-0.41237 0.157096,-0.54466 0.152964,-0.1323 0.388607,-0.1323 0.22221,0 0.364837,0.0713 v -0.62632 z m -0.393774,1.67225 v -0.85473 q 0,-0.0124 -0.06408,-0.0424 -0.06408,-0.03 -0.177765,-0.0383 -0.208775,0 -0.280088,0.12713 -0.07131,0.12609 -0.07131,0.3638 0,0.18914 0.03307,0.31213 0.03411,0.12195 0.113688,0.185 0.07958,0.062 0.212908,0.062 0.09715,-0.009 0.165365,-0.0537 0.06821,-0.0455 0.06821,-0.061 z" />
    <path
       inkscape:connector-curvature="0"
       id="path848"
       style="font-style:normal;font-variant:normal;font-weight:normal;font-stretch:normal;font-size:medium;line-height:6.61458302px;font-family:LilyUPC;-inkscape-font-specification:LilyUPC;letter-spacing:0px;word-spacing:0px;fill:#fffffe;fill-opacity:1;stroke:none;stroke-width:0.26458332"
       d="m 3.6723588,202.85664 -0.5550048,1.35909 -0.5756755,-1.35909 v 1.32085 H 2.2243853 v -1.97301 h 0.4991943 l 0.4619872,1.03353 0.4444173,-1.03353 h 0.4909261 v 1.97301 H 3.6723588 Z" />
    <path
       inkscape:connector-curvature="0"
       id="path850"
       style="font-style:normal;font-variant:normal;font-weight:normal;font-stretch:normal;font-size:medium;line-height:6.61458302px;font-family:LilyUPC;-inkscape-font-specification:LilyUPC;letter-spacing:0px;word-spacing:0px;fill:#fffffe;fill-opacity:1;stroke:none;stroke-width:0.26458332"
       d="m 4.7296585,203.77958 q 0,0.0879 0.064079,0.14573 0.065112,0.0579 0.1601969,0.0579 0.1570963,-0.004 0.2242757,-0.0744 0.067179,-0.0703 0.080615,-0.11679 v -1.02422 h 0.2966227 v 1.40973 H 5.2588251 v -0.13126 q -0.040308,0.0341 -0.1746663,0.0847 -0.1343587,0.0506 -0.3710368,0.0506 -0.1756998,-0.006 -0.2790527,-0.10645 Q 4.33175,203.97492 4.33175,203.79198 v -1.02422 h 0.3979085 z" />
    <path
       inkscape:connector-curvature="0"
       id="path852"
       style="font-style:normal;font-variant:normal;font-weight:normal;font-stretch:normal;font-size:medium;line-height:6.61458302px;font-family:LilyUPC;-inkscape-font-specification:LilyUPC;letter-spacing:0px;word-spacing:0px;fill:#fffffe;fill-opacity:1;stroke:none;stroke-width:0.26458332"
       d="m 5.7538852,204.17749 v -1.97301 h 0.3896403 v 1.97301 z" />
    <path
       inkscape:connector-curvature="0"
       id="path854"
       style="font-style:normal;font-variant:normal;font-weight:normal;font-stretch:normal;font-size:medium;line-height:6.61458302px;font-family:LilyUPC;-inkscape-font-specification:LilyUPC;letter-spacing:0px;word-spacing:0px;fill:#fffffe;fill-opacity:1;stroke:none;stroke-width:0.26458332"
       d="m 6.9248731,202.94552 v 0.81753 q 0,0.12195 0.072347,0.17363 0.051676,0.0413 0.1953369,0.0413 v 0.19947 q -0.012402,0.001 -0.044442,0.002 -0.033073,0.002 -0.074414,0.002 -0.271818,0 -0.3979085,-0.093 -0.1488281,-0.10129 -0.1488281,-0.34313 v -0.79996 H 6.2603142 v -0.17776 h 0.2666504 v -0.56328 h 0.3979085 v 0.56328 H 7.192557 v 0.17776 z" />
    <path
       inkscape:connector-curvature="0"
       id="path856"
       style="font-style:normal;font-variant:normal;font-weight:normal;font-stretch:normal;font-size:medium;line-height:6.61458302px;font-family:LilyUPC;-inkscape-font-specification:LilyUPC;letter-spacing:0px;word-spacing:0px;fill:#fffffe;fill-opacity:1;stroke:none;stroke-width:0.26458332"
       d="m 7.2876415,204.17749 v -1.40973 h 0.3937744 v 1.40973 z m 0.199471,-1.97714 q 0.10542,0 0.1643311,0.0662 0.059945,0.0661 0.059945,0.15813 0,0.094 -0.060978,0.16123 -0.059945,0.0672 -0.1674317,0.0672 -0.1033528,0 -0.164331,-0.0672 -0.060978,-0.0682 -0.060978,-0.1571 0,-0.091 0.060978,-0.15916 0.060978,-0.0693 0.1684646,-0.0693 z" />
    <path
       inkscape:connector-curvature="0"
       id="path858"
       style="font-style:normal;font-variant:normal;font-weight:normal;font-stretch:normal;font-size:medium;line-height:6.61458302px;font-family:LilyUPC;-inkscape-font-specification:LilyUPC;letter-spacing:0px;word-spacing:0px;fill:#fffffe;fill-opacity:1;stroke:none;stroke-width:0.26458332"
       d="m 7.8581495,204.7449 v -1.97714 h 0.3937744 v 0.10128 q 0,0 0,0 0,-0.001 0.051676,-0.0289 0.05271,-0.0289 0.1240235,-0.0527 0.071314,-0.0238 0.1550293,-0.0279 0.1508951,0 0.2707845,0.0382 0.1209228,0.0372 0.2149739,0.1943 0.094051,0.15607 0.094051,0.47439 -0.0062,0.30489 -0.083716,0.46302 -0.077515,0.15813 -0.1901693,0.20671 -0.1116211,0.0475 -0.2687174,0.0537 -0.217041,0 -0.3679362,-0.0754 v 0.63046 z m 0.3937744,-1.67639 v 0.85887 q 0.018604,0.0165 0.078548,0.0455 0.060978,0.0279 0.1674316,0.0351 0.2036052,0 0.2738851,-0.13849 0.07028,-0.13953 0.077515,-0.39481 0,-0.1912 -0.033073,-0.30386 -0.032039,-0.11368 -0.1105875,-0.16536 -0.078548,-0.0517 -0.2211751,-0.0517 -0.093018,0.0103 -0.1632976,0.0568 -0.069246,0.0455 -0.069246,0.0579 z" />
    <path
       inkscape:connector-curvature="0"
       id="path860"
       style="font-style:normal;font-variant:normal;font-weight:normal;font-stretch:normal;font-size:medium;line-height:6.61458302px;font-family:LilyUPC;-inkscape-font-specification:LilyUPC;letter-spacing:0px;word-spacing:0px;fill:#fffffe;fill-opacity:1;stroke:none;stroke-width:0.26458332"
       d="m 9.3009557,204.17749 v -1.97301 H 9.690596 v 1.97301 z" />
    <path
       inkscape:connector-curvature="0"
       id="path862"
       style="font-style:normal;font-variant:normal;font-weight:normal;font-stretch:normal;font-size:medium;line-height:6.61458302px;font-family:LilyUPC;-inkscape-font-specification:LilyUPC;letter-spacing:0px;word-spacing:0px;fill:#fffffe;fill-opacity:1;stroke:none;stroke-width:0.26458332"
       d="m 10.235265,203.5429 q 0.0093,0.11162 0.07648,0.28216 0.06718,0.17053 0.244946,0.1788 0.217041,0 0.340031,-0.0548 0.12299,-0.0558 0.160197,-0.093 l -0.05994,0.24495 q 0,0.0217 -0.12299,0.0579 -0.12299,0.0351 -0.313159,0.0351 -0.07545,0 -0.117823,-0.004 -0.307991,-0.0227 -0.4516517,-0.17673 -0.1426269,-0.15503 -0.1457275,-0.49609 0,-0.39068 0.1622642,-0.57258 0.163297,-0.1819 0.47749,-0.185 0.377238,0 0.511597,0.19844 0.114721,0.16433 0.114721,0.44441 0,0.0527 -0.0031,0.0899 -0.0031,0.0362 -0.0052,0.0506 z m 0.288355,-0.60564 q -0.288355,0.009 -0.288355,0.41858 h 0.613916 q 0,-0.41858 -0.325561,-0.41858 z" />
    <path
       inkscape:connector-curvature="0"
       id="path864"
       style="font-style:normal;font-variant:normal;font-weight:normal;font-stretch:normal;font-size:medium;line-height:6.61458302px;font-family:LilyUPC;-inkscape-font-specification:LilyUPC;letter-spacing:0px;word-spacing:0px;fill:#fffffe;fill-opacity:1;stroke:none;stroke-width:0.26458332"
       d="m 11.215051,202.76776 h 0.452685 l 0.250114,0.39791 0.270785,-0.39791 h 0.274918 l -0.414444,0.59738 0.503328,0.81235 h -0.45682 l -0.292488,-0.47026 -0.325562,0.47026 h -0.292488 l 0.478523,-0.6811 z" />
    <path
       inkscape:connector-curvature="0"
       id="path866"
       style="font-style:normal;font-variant:normal;font-weight:normal;font-stretch:normal;font-size:medium;line-height:6.61458302px;font-family:LilyUPC;-inkscape-font-specification:LilyUPC;letter-spacing:0px;word-spacing:0px;fill:#fffffe;fill-opacity:1;stroke:none;stroke-width:0.26458332"
       d="m 13.248001,202.75949 q 0.24598,0 0.392741,0.0796 0.147795,0.0796 0.211873,0.23565 0.06408,0.15606 0.06408,0.39584 0,0.37517 -0.159163,0.54983 -0.159164,0.17364 -0.518832,0.17364 -0.341064,-0.003 -0.503328,-0.17467 -0.161231,-0.17157 -0.161231,-0.54467 0.0062,-0.7152 0.673861,-0.7152 z m -0.280086,0.71107 q 0.0072,0.18293 0.02067,0.27802 0.01447,0.0941 0.07545,0.17053 0.06098,0.0765 0.188102,0.0765 0.177767,0 0.224276,-0.13436 0.04651,-0.13539 0.04651,-0.38241 0,-0.24287 -0.04754,-0.38343 -0.04651,-0.1416 -0.223242,-0.1416 -0.181901,0.005 -0.233577,0.1416 -0.05064,0.13539 -0.05064,0.37517 z" />
    <path
       inkscape:connector-curvature="0"
       id="path868"
       style="font-style:normal;font-variant:normal;font-weight:normal;font-stretch:normal;font-size:medium;line-height:6.61458302px;font-family:LilyUPC;-inkscape-font-specification:LilyUPC;letter-spacing:0px;word-spacing:0px;fill:#fffffe;fill-opacity:1;stroke:none;stroke-width:0.26458332"
       d="m 14.046919,204.17749 v -1.40973 h 0.397908 v 0.17363 q 0.0021,-0.002 0.02377,-0.0289 0.02274,-0.0279 0.06718,-0.0579 0.04444,-0.03 0.120923,-0.0568 0.08165,-0.0341 0.207739,-0.0341 0.09715,0 0.121956,0.008 l 0.03411,0.20361 q -0.07235,-0.0176 -0.135392,-0.0176 -0.13746,0 -0.22841,0.0517 -0.10232,0.0506 -0.157097,0.1385 -0.05478,0.0879 -0.05478,0.16123 v 0.86816 z" />
    <path
       inkscape:connector-curvature="0"
       id="path882"
       style="font-style:italic;font-variant:normal;font-weight:normal;font-stretch:normal;font-size:4.23333311px;line-height:6.61458302px;font-family:LilyUPC;-inkscape-font-specification:'LilyUPC, Italic';font-variant-ligatures:normal;font-variant-caps:normal;font-variant-numeric:normal;font-feature-settings:normal;text-align:start;letter-spacing:0px;word-spacing:0px;writing-mode:lr-tb;text-anchor:start;fill:#ffffff;fill-opacity:1;stroke:none;stroke-width:0.26458332"
       d="m 3.0607949,293.9521 q 0.5632731,0 0.5632731,0.61805 0,0.16227 -0.038241,0.36484 -0.057878,0.33176 -0.1674317,0.5519 -0.109554,0.21911 -0.2862874,0.32867 -0.1756998,0.10955 -0.4268473,0.10955 H 1.8412312 l 0.3472656,-1.97301 z m 0.160197,0.98289 q 0.034106,-0.19327 0.034106,-0.33486 0,-0.19637 -0.084749,-0.29869 -0.083716,-0.10336 -0.287321,-0.10336 H 2.5946735 l -0.2625162,1.48105 h 0.3224609 q 0.2573486,0 0.3824056,-0.1881 0.1250569,-0.18914 0.1839681,-0.55604 z" />
    <path
       inkscape:connector-curvature="0"
       id="path884"
       style="font-style:italic;font-variant:normal;font-weight:normal;font-stretch:normal;font-size:4.23333311px;line-height:6.61458302px;font-family:LilyUPC;-inkscape-font-specification:'LilyUPC, Italic';font-variant-ligatures:normal;font-variant-caps:normal;font-variant-numeric:normal;font-feature-settings:normal;text-align:start;letter-spacing:0px;word-spacing:0px;writing-mode:lr-tb;text-anchor:start;fill:#ffffff;fill-opacity:1;stroke:none;stroke-width:0.26458332"
       d="m 4.7537148,293.94384 q 0.3731038,0 0.5395019,0.15813 0.1674316,0.15813 0.1674316,0.48162 0,0.15193 -0.034106,0.3514 -0.088883,0.51573 -0.3379638,0.76171 -0.2490804,0.24495 -0.6945313,0.24495 -0.3503662,0 -0.5188313,-0.15813 -0.1674316,-0.15813 -0.1674316,-0.493 0,-0.1819 0.034106,-0.35553 0.093018,-0.49816 0.3410644,-0.74311 0.2490804,-0.24494 0.6707601,-0.24804 z m -0.5457031,0.99115 q -0.038241,0.25631 -0.038241,0.36794 0,0.35863 0.2749186,0.3638 0.1694987,0 0.2707845,-0.10232 0.1023194,-0.10335 0.1508952,-0.25528 0.048576,-0.15297 0.085783,-0.36587 0.042375,-0.23978 0.042375,-0.37311 0,-0.34623 -0.2831869,-0.3514 -0.2377116,0 -0.3451985,0.19637 -0.107487,0.19638 -0.1581299,0.51987 z" />
    <path
       inkscape:connector-curvature="0"
       id="path886"
       style="font-style:italic;font-variant:normal;font-weight:normal;font-stretch:normal;font-size:4.23333311px;line-height:6.61458302px;font-family:LilyUPC;-inkscape-font-specification:'LilyUPC, Italic';font-variant-ligatures:normal;font-variant-caps:normal;font-variant-numeric:normal;font-feature-settings:normal;text-align:start;letter-spacing:0px;word-spacing:0px;writing-mode:lr-tb;text-anchor:start;fill:#ffffff;fill-opacity:1;stroke:none;stroke-width:0.26458332"
       d="m 7.2703558,294.52365 q -0.03927,0.24287 -0.160196,0.37413 -0.11989,0.13023 -0.282154,0.1726 -0.1622637,0.0424 -0.3741367,0.0424 H 6.0476924 l -0.144694,0.81235 H 5.4544471 l 0.3472653,-1.97301 h 0.9064047 q 0.2759517,0 0.4258137,0.093 0.149861,0.092 0.149861,0.33073 0,0.0682 -0.01344,0.1478 z m -0.418579,-0.0124 q 0,-0.31316 -0.2377107,-0.31316 H 6.2078894 l -0.117822,0.67283 h 0.3937737 q 0.152962,0 0.24598,-0.0775 0.09302,-0.0786 0.1219557,-0.28216 z" />
    <path
       inkscape:connector-curvature="0"
       id="path888"
       style="font-style:italic;font-variant:normal;font-weight:normal;font-stretch:normal;font-size:4.23333311px;line-height:6.61458302px;font-family:LilyUPC;-inkscape-font-specification:'LilyUPC, Italic';font-variant-ligatures:normal;font-variant-caps:normal;font-variant-numeric:normal;font-feature-settings:normal;text-align:start;letter-spacing:0px;word-spacing:0px;writing-mode:lr-tb;text-anchor:start;fill:#ffffff;fill-opacity:1;stroke:none;stroke-width:0.26458332"
       d="m 7.5339055,293.9521 h 1.3425534 l -0.04238,0.24598 H 7.9400772 l -0.1012857,0.57568 h 0.7451734 l -0.04237,0.24495 H 7.7964205 l -0.118855,0.66042 h 0.9064034 l -0.04237,0.24598 H 7.1866438 Z" />
    <path
       inkscape:connector-curvature="0"
       id="path890"
       style="font-style:italic;font-variant:normal;font-weight:normal;font-stretch:normal;font-size:4.23333311px;line-height:6.61458302px;font-family:LilyUPC;-inkscape-font-specification:'LilyUPC, Italic';font-variant-ligatures:normal;font-variant-caps:normal;font-variant-numeric:normal;font-feature-settings:normal;text-align:start;letter-spacing:0px;word-spacing:0px;writing-mode:lr-tb;text-anchor:start;fill:#ffffff;fill-opacity:1;stroke:none;stroke-width:0.26458332"
       d="M 9.1648136,295.92511 H 8.7162619 L 9.0635276,293.9521 H 10.40608 l -0.04237,0.24598 H 9.4697046 l -0.101286,0.57568 h 0.7451734 l -0.04237,0.24495 H 9.3260486 Z" />
    <path
       inkscape:connector-curvature="0"
       id="path892"
       style="font-style:italic;font-variant:normal;font-weight:normal;font-stretch:normal;font-size:4.23333311px;line-height:6.61458302px;font-family:LilyUPC;-inkscape-font-specification:'LilyUPC, Italic';font-variant-ligatures:normal;font-variant-caps:normal;font-variant-numeric:normal;font-feature-settings:normal;text-align:start;letter-spacing:0px;word-spacing:0px;writing-mode:lr-tb;text-anchor:start;fill:#ffffff;fill-opacity:1;stroke:none;stroke-width:0.26458332"
       d="m 10.54354,293.9521 h 1.342553 l -0.04237,0.24598 H 10.94972 l -0.101285,0.57568 h 0.745174 l -0.04237,0.24495 h -0.745174 l -0.118856,0.66042 h 0.906405 l -0.04237,0.24598 h -1.35497 z" />
    <path
       inkscape:connector-curvature="0"
       id="path894"
       style="font-style:italic;font-variant:normal;font-weight:normal;font-stretch:normal;font-size:4.23333311px;line-height:6.61458302px;font-family:LilyUPC;-inkscape-font-specification:'LilyUPC, Italic';font-variant-ligatures:normal;font-variant-caps:normal;font-variant-numeric:normal;font-feature-settings:normal;text-align:start;letter-spacing:0px;word-spacing:0px;writing-mode:lr-tb;text-anchor:start;fill:#ffffff;fill-opacity:1;stroke:none;stroke-width:0.26458332"
       d="m 12.941326,293.9521 q 0.563273,0 0.563273,0.61805 0,0.16227 -0.03824,0.36484 -0.05788,0.33176 -0.167431,0.5519 -0.109554,0.21911 -0.286288,0.32867 -0.1757,0.10955 -0.426847,0.10955 h -0.86403 l 0.347266,-1.97301 z m 0.160197,0.98289 q 0.03411,-0.19327 0.03411,-0.33486 0,-0.19637 -0.08475,-0.29869 -0.08372,-0.10336 -0.287321,-0.10336 h -0.288358 l -0.262516,1.48105 h 0.322461 q 0.257349,0 0.382406,-0.1881 0.125057,-0.18914 0.183968,-0.55604 z" />
    <path
       inkscape:connector-curvature="0"
       id="path1519"
       style="font-style:normal;font-variant:normal;font-weight:normal;font-stretch:normal;font-size:medium;line-height:6.61458302px;font-family:LilyUPC;-inkscape-font-specification:LilyUPC;letter-spacing:0px;word-spacing:0px;fill:#ffffff;fill-opacity:1;stroke:none;stroke-width:0.26458332"
       d="m 4.7742045,210.47606 v 1.97301 H 4.3256531 v -1.97301 z" />
    <path
       inkscape:connector-curvature="0"
       id="path1521"
       style="font-style:normal;font-variant:normal;font-weight:normal;font-stretch:normal;font-size:medium;line-height:6.61458302px;font-family:LilyUPC;-inkscape-font-specification:LilyUPC;letter-spacing:0px;word-spacing:0px;fill:#ffffff;fill-opacity:1;stroke:none;stroke-width:0.26458332"
       d="m 6.2015075,211.36489 v 1.08418 H 5.9048848 v -1.0325 q 0,-0.17777 -0.2707845,-0.17777 -0.1322917,0.0155 -0.1901693,0.0827 -0.056844,0.0661 -0.068213,0.10748 v 1.0201 H 4.9778096 v -1.40974 h 0.3979085 v 0.11472 q 0.00827,-0.005 0.055811,-0.0372 0.048576,-0.032 0.1364257,-0.0589 0.088883,-0.0269 0.2056722,-0.0269 0.2201416,0 0.3234945,0.10129 0.1043864,0.10025 0.104386,0.23254 z" />
    <path
       inkscape:connector-curvature="0"
       id="path1523"
       style="font-style:normal;font-variant:normal;font-weight:normal;font-stretch:normal;font-size:medium;line-height:6.61458302px;font-family:LilyUPC;-inkscape-font-specification:LilyUPC;letter-spacing:0px;word-spacing:0px;fill:#ffffff;fill-opacity:1;stroke:none;stroke-width:0.26458332"
       d="m 6.3792744,213.01647 v -1.97714 h 0.3937744 v 0.10129 q 0,0 0,0 0,-0.001 0.051676,-0.0289 0.05271,-0.0289 0.1240234,-0.0527 0.071313,-0.0238 0.1550293,-0.0279 0.1508952,0 0.2707845,0.0383 0.1209228,0.0372 0.2149739,0.1943 0.094051,0.15606 0.094051,0.47439 -0.0062,0.30489 -0.083716,0.46302 -0.077515,0.15813 -0.1901692,0.20671 -0.1116211,0.0475 -0.2687175,0.0537 -0.217041,0 -0.3679361,-0.0754 v 0.63045 z m 0.3937744,-1.67638 v 0.85886 q 0.018604,0.0165 0.078548,0.0455 0.060978,0.0279 0.1674317,0.0351 0.2036051,0 0.273885,-0.1385 0.07028,-0.13952 0.077515,-0.3948 0,-0.19121 -0.033073,-0.30386 -0.032039,-0.11369 -0.1105876,-0.16537 -0.078548,-0.0517 -0.2211751,-0.0517 -0.093018,0.0103 -0.1632975,0.0568 -0.069246,0.0455 -0.069246,0.0579 z" />
    <path
       inkscape:connector-curvature="0"
       id="path1525"
       style="font-style:normal;font-variant:normal;font-weight:normal;font-stretch:normal;font-size:medium;line-height:6.61458302px;font-family:LilyUPC;-inkscape-font-specification:LilyUPC;letter-spacing:0px;word-spacing:0px;fill:#ffffff;fill-opacity:1;stroke:none;stroke-width:0.26458332"
       d="m 8.2117206,212.05116 q 0,0.0879 0.064079,0.14573 0.065112,0.0579 0.1601969,0.0579 0.1570963,-0.004 0.2242757,-0.0744 0.067179,-0.0703 0.080615,-0.11679 v -1.02423 h 0.2966224 v 1.40974 H 8.7408872 v -0.13126 q -0.040308,0.0341 -0.1746663,0.0847 -0.1343587,0.0506 -0.3710368,0.0506 -0.1756998,-0.006 -0.2790527,-0.10645 -0.1023193,-0.10026 -0.1023193,-0.28319 v -1.02423 h 0.3979085 z" />
    <path
       inkscape:connector-curvature="0"
       id="path1527"
       style="font-style:normal;font-variant:normal;font-weight:normal;font-stretch:normal;font-size:medium;line-height:6.61458302px;font-family:LilyUPC;-inkscape-font-specification:LilyUPC;letter-spacing:0px;word-spacing:0px;fill:#ffffff;fill-opacity:1;stroke:none;stroke-width:0.26458332"
       d="m 9.8198913,211.2171 v 0.81752 q 0,0.12196 0.07235,0.17363 0.05168,0.0413 0.1953357,0.0413 v 0.19947 q -0.0124,0.001 -0.04444,0.002 -0.03307,0.002 -0.07441,0.002 -0.271818,0 -0.397909,-0.093 -0.1488277,-0.10128 -0.1488277,-0.34313 v -0.79995 h -0.26665 v -0.17777 h 0.26665 V 210.4759 H 9.819899 v 0.56327 h 0.267683 v 0.17777 z" />
    <path
       inkscape:connector-curvature="0"
       id="path1529"
       style="font-style:normal;font-variant:normal;font-weight:normal;font-stretch:normal;font-size:medium;line-height:6.61458302px;font-family:LilyUPC;-inkscape-font-specification:LilyUPC;letter-spacing:0px;word-spacing:0px;fill:#ffffff;fill-opacity:1;stroke:none;stroke-width:0.26458332"
       d="m 10.529925,211.38246 q 0,0.0816 0.144694,0.12299 0.145727,0.0403 0.298689,0.0765 0.152963,0.0351 0.264584,0.11988 0.112654,0.0837 0.117822,0.26045 0,0.25839 -0.139526,0.37104 -0.138493,0.11266 -0.403077,0.13229 -0.03307,0.004 -0.101285,0.004 -0.179834,0 -0.310059,-0.0279 -0.130225,-0.0289 -0.180867,-0.0475 l -0.05478,-0.24598 q 0.04651,0.032 0.170532,0.0806 0.124023,0.0486 0.29869,0.0507 0.186035,0 0.252181,-0.0558 0.06718,-0.0568 0.07028,-0.17674 0,-0.13849 -0.09405,-0.18293 -0.09302,-0.0444 -0.302824,-0.0858 -0.208772,-0.0413 -0.315226,-0.11886 -0.10542,-0.0775 -0.10542,-0.27285 0.0155,-0.34003 0.537435,-0.3638 0.01757,0 0.04858,-0.002 0.03101,-0.002 0.04444,-0.002 0.189136,0 0.304891,0.0269 0.115755,0.0269 0.157096,0.0444 l 0.06718,0.22841 q -0.04031,-0.0258 -0.158129,-0.0631 -0.117823,-0.0382 -0.319361,-0.0382 -0.136426,0 -0.212907,0.032 -0.07648,0.031 -0.07958,0.13332 z" />
    <path
       inkscape:connector-curvature="0"
       id="path1500"
       style="font-style:normal;font-variant:normal;font-weight:normal;font-stretch:normal;font-size:medium;line-height:6.61458302px;font-family:LilyUPC;-inkscape-font-specification:LilyUPC;letter-spacing:0px;word-spacing:0px;fill:#ffffff;fill-opacity:1;stroke:none;stroke-width:0.26458332"
       d="m 4.6161221,281.01216 q 0.3090251,0 0.4981608,0.11163 0.1891357,0.11058 0.2707845,0.32866 0.081649,0.21807 0.081649,0.55087 0,0.3421 -0.089917,0.56637 -0.089917,0.22324 -0.2790528,0.33176 -0.1881022,0.10853 -0.4857584,0.10853 -0.2862874,0 -0.4702555,-0.10646 -0.1839681,-0.10645 -0.271818,-0.32969 -0.08785,-0.22325 -0.08785,-0.57051 0.0031,-0.4961 0.2077393,-0.74208 0.2056722,-0.24598 0.6263181,-0.24908 z m -0.3689697,0.99116 q 0.011369,0.34623 0.07338,0.53743 0.062012,0.19121 0.2914551,0.19431 0.1694987,0 0.252181,-0.10232 0.083716,-0.10336 0.1054199,-0.25425 0.022738,-0.15193 0.022738,-0.3669 0,-0.22015 -0.019637,-0.36484 -0.018603,-0.14469 -0.1002523,-0.25115 -0.081649,-0.10748 -0.2480468,-0.10852 -0.2366781,0 -0.306958,0.19327 -0.07028,0.19327 -0.07028,0.52297 z" />
    <path
       inkscape:connector-curvature="0"
       id="path1502"
       style="font-style:normal;font-variant:normal;font-weight:normal;font-stretch:normal;font-size:medium;line-height:6.61458302px;font-family:LilyUPC;-inkscape-font-specification:LilyUPC;letter-spacing:0px;word-spacing:0px;fill:#ffffff;fill-opacity:1;stroke:none;stroke-width:0.26458332"
       d="m 6.0196544,282.59553 q 0,0.0879 0.06408,0.14573 0.06511,0.0579 0.160197,0.0579 0.1570967,-0.004 0.2242757,-0.0744 0.06718,-0.0703 0.08061,-0.11679 v -1.02422 h 0.2966227 v 1.40973 H 6.5488171 v -0.13126 q -0.04031,0.0341 -0.174666,0.0847 -0.1343587,0.0506 -0.3710367,0.0506 -0.1757,-0.006 -0.2790527,-0.10645 -0.1023193,-0.10025 -0.1023193,-0.28319 v -1.02422 h 0.397909 z" />
    <path
       inkscape:connector-curvature="0"
       id="path1504"
       style="font-style:normal;font-variant:normal;font-weight:normal;font-stretch:normal;font-size:medium;line-height:6.61458302px;font-family:LilyUPC;-inkscape-font-specification:LilyUPC;letter-spacing:0px;word-spacing:0px;fill:#ffffff;fill-opacity:1;stroke:none;stroke-width:0.26458332"
       d="m 7.6278235,281.76147 v 0.81752 q 0,0.12196 0.07235,0.17364 0.05168,0.0413 0.1953367,0.0413 v 0.19947 q -0.0124,10e-4 -0.04444,0.002 -0.03307,0.002 -0.07441,0.002 -0.271818,0 -0.397908,-0.093 -0.1488277,-0.10129 -0.1488277,-0.34314 v -0.79995 h -0.266651 v -0.17776 h 0.266651 v -0.56328 h 0.3979077 v 0.56328 h 0.2676837 v 0.17776 z" />
    <path
       inkscape:connector-curvature="0"
       id="path1506"
       style="font-style:normal;font-variant:normal;font-weight:normal;font-stretch:normal;font-size:medium;line-height:6.61458302px;font-family:LilyUPC;-inkscape-font-specification:LilyUPC;letter-spacing:0px;word-spacing:0px;fill:#ffffff;fill-opacity:1;stroke:none;stroke-width:0.26458332"
       d="m 7.9905922,283.56085 v -1.97714 h 0.393774 v 0.10128 q 0,0 0,0 0,-0.001 0.05168,-0.0289 0.05271,-0.0289 0.124024,-0.0527 0.07131,-0.0238 0.155029,-0.0279 0.150895,0 0.2707854,0.0382 0.120922,0.0372 0.214974,0.1943 0.09405,0.15606 0.09405,0.47439 -0.0062,0.30489 -0.08372,0.46302 -0.07752,0.15813 -0.190169,0.20671 -0.1116224,0.0475 -0.2687184,0.0537 -0.217041,0 -0.3679357,-0.0754 v 0.63046 z m 0.393774,-1.67639 v 0.85886 q 0.0186,0.0165 0.07855,0.0455 0.06098,0.0279 0.167432,0.0351 0.203605,0 0.273885,-0.13849 0.07028,-0.13953 0.07751,-0.39481 0,-0.1912 -0.03307,-0.30386 -0.03204,-0.11369 -0.1105884,-0.16536 -0.07855,-0.0517 -0.221175,-0.0517 -0.09302,0.0103 -0.163298,0.0568 -0.06925,0.0455 -0.06925,0.0579 z" />
    <path
       inkscape:connector-curvature="0"
       id="path1508"
       style="font-style:normal;font-variant:normal;font-weight:normal;font-stretch:normal;font-size:medium;line-height:6.61458302px;font-family:LilyUPC;-inkscape-font-specification:LilyUPC;letter-spacing:0px;word-spacing:0px;fill:#ffffff;fill-opacity:1;stroke:none;stroke-width:0.26458332"
       d="m 9.8230373,282.59553 q 0,0.0879 0.06408,0.14573 0.06511,0.0579 0.1601967,0.0579 0.157096,-0.004 0.224275,-0.0744 0.06718,-0.0703 0.08062,-0.11679 v -1.02422 h 0.296622 v 1.40973 h -0.296627 v -0.13126 q -0.04031,0.0341 -0.174667,0.0847 -0.134358,0.0506 -0.3710357,0.0506 -0.1757,-0.006 -0.279053,-0.10645 -0.1023197,-0.10025 -0.1023197,-0.28319 v -1.02422 h 0.3979087 z" />
    <path
       inkscape:connector-curvature="0"
       id="path1510"
       style="font-style:normal;font-variant:normal;font-weight:normal;font-stretch:normal;font-size:medium;line-height:6.61458302px;font-family:LilyUPC;-inkscape-font-specification:LilyUPC;letter-spacing:0px;word-spacing:0px;fill:#ffffff;fill-opacity:1;stroke:none;stroke-width:0.26458332"
       d="m 11.431207,281.76147 v 0.81752 q 0,0.12196 0.07235,0.17364 0.05168,0.0413 0.195337,0.0413 v 0.19947 q -0.0124,10e-4 -0.04444,0.002 -0.03307,0.002 -0.07442,0.002 -0.271818,0 -0.397908,-0.093 -0.148828,-0.10129 -0.148828,-0.34314 v -0.79995 h -0.266651 v -0.17776 h 0.266651 v -0.56328 h 0.397908 v 0.56328 h 0.267684 v 0.17776 z" />
  </g>
  <g
     inkscape:groupmode="layer"
     id="layer2"
     inkscape:label="frame"
     style="display:none">
    <rect
       transform="translate(0,-196.45832)"
       style="display:inline;opacity:1;fill:none;fill-opacity:1;stroke:#ffffff;stroke-width:0.39824808;stroke-linejoin:round;stroke-miterlimit:4;stroke-dasharray:none;stroke-opacity:1"
       id="rect2129"
       width="13.360085"
       height="86.842422"
       x="1.2574574"
       y="206.17705"
       ry="1.2821511" />
  </g>
</svg>
