<?xml version="1.0" encoding="UTF-8" standalone="no"?>
<!-- Created with Inkscape (http://www.inkscape.org/) -->

<svg
   xmlns:dc="http://purl.org/dc/elements/1.1/"
   xmlns:cc="http://creativecommons.org/ns#"
   xmlns:rdf="http://www.w3.org/1999/02/22-rdf-syntax-ns#"
   xmlns:svg="http://www.w3.org/2000/svg"
   xmlns="http://www.w3.org/2000/svg"
   xmlns:sodipodi="http://sodipodi.sourceforge.net/DTD/sodipodi-0.dtd"
   xmlns:inkscape="http://www.inkscape.org/namespaces/inkscape"
   width="285"
   height="380"
   viewBox="0 0 285 380.00001"
   id="svg14650"
   version="1.1"
   inkscape:version="0.92.2 (5c3e80d, 2017-08-06)"
   sodipodi:docname="SwitchMatrix.svg">
  <defs
     id="defs14652" />
  <sodipodi:namedview
     id="base"
     pagecolor="#ffffff"
     bordercolor="#666666"
     borderopacity="1.0"
     inkscape:pageopacity="0.0"
     inkscape:pageshadow="2"
     inkscape:zoom="3.3457289"
     inkscape:cx="99.429"
     inkscape:cy="258.53659"
     inkscape:document-units="px"
     inkscape:current-layer="layer1"
     showgrid="true"
     units="px"
     objecttolerance="2"
     inkscape:window-width="1920"
     inkscape:window-height="1061"
     inkscape:window-x="-4"
     inkscape:window-y="-4"
     inkscape:window-maximized="1">
    <inkscape:grid
       type="xygrid"
       id="grid15198"
       spacingx="4.9999999"
       spacingy="5.0000001"
       empspacing="3" />
  </sodipodi:namedview>
  <metadata
     id="metadata14655">
    <rdf:RDF>
      <cc:Work
         rdf:about="">
        <dc:format>image/svg+xml</dc:format>
        <dc:type
           rdf:resource="http://purl.org/dc/dcmitype/StillImage" />
        <dc:title />
      </cc:Work>
    </rdf:RDF>
  </metadata>
  <g
     inkscape:label="Layer 1"
     inkscape:groupmode="layer"
     id="layer1"
     transform="translate(0,-672.36216)">
    <rect
       style="fill:#000000;fill-opacity:1;stroke:none;stroke-width:3.89763784;stroke-linejoin:round;stroke-miterlimit:4;stroke-dasharray:none;stroke-opacity:1"
       id="rect15200"
       width="285"
       height="380"
       x="0"
       y="672.36218"
       sodipodi:insensitive="true" />
    <path
       inkscape:connector-curvature="0"
       id="path4847"
       style="font-style:normal;font-variant:normal;font-weight:normal;font-stretch:normal;font-size:medium;line-height:125%;font-family:LilyUPC;-inkscape-font-specification:'LilyUPC, Normal';text-align:start;letter-spacing:0px;word-spacing:0px;writing-mode:lr-tb;text-anchor:start;fill:#ffffff;fill-opacity:1;stroke:none;stroke-width:1px;stroke-linecap:butt;stroke-linejoin:miter;stroke-opacity:1"
       d="m 12.08374,1010.3712 v 6.991 h -1.589355 v -6.991 z" />
    <path
       inkscape:connector-curvature="0"
       id="path4849"
       style="font-style:normal;font-variant:normal;font-weight:normal;font-stretch:normal;font-size:medium;line-height:125%;font-family:LilyUPC;-inkscape-font-specification:'LilyUPC, Normal';text-align:start;letter-spacing:0px;word-spacing:0px;writing-mode:lr-tb;text-anchor:start;fill:#ffffff;fill-opacity:1;stroke:none;stroke-width:1px;stroke-linecap:butt;stroke-linejoin:miter;stroke-opacity:1"
       d="m 17.141113,1013.5206 v 3.8416 h -1.051025 v -3.6585 q 0,-0.6299 -0.959473,-0.6299 -0.46875,0.055 -0.673828,0.293 -0.201416,0.2344 -0.241699,0.3809 v 3.6145 h -1.409912 v -4.9951 h 1.409912 v 0.4065 q 0.0293,-0.018 0.197754,-0.1319 0.172119,-0.1135 0.483398,-0.2087 0.314942,-0.095 0.72876,-0.095 0.780029,0 1.14624,0.3589 0.369873,0.3552 0.369873,0.8239 z" />
    <path
       inkscape:connector-curvature="0"
       id="path4851"
       style="font-style:normal;font-variant:normal;font-weight:normal;font-stretch:normal;font-size:medium;line-height:125%;font-family:LilyUPC;-inkscape-font-specification:'LilyUPC, Normal';text-align:start;letter-spacing:0px;word-spacing:0px;writing-mode:lr-tb;text-anchor:start;fill:#ffffff;fill-opacity:1;stroke:none;stroke-width:1px;stroke-linecap:butt;stroke-linejoin:miter;stroke-opacity:1"
       d="m 19.001465,1013.5829 q 0,0.2893 0.512695,0.4358 0.516358,0.1428 1.05835,0.271 0.541992,0.1245 0.9375,0.4248 0.39917,0.2966 0.41748,0.9228 0,0.9156 -0.494385,1.3147 -0.490722,0.3992 -1.428222,0.4688 -0.117188,0.015 -0.358887,0.015 -0.637207,0 -1.098633,-0.099 -0.461426,-0.1026 -0.640869,-0.1685 l -0.194092,-0.8716 q 0.164795,0.1136 0.604248,0.2857 0.439454,0.1721 1.05835,0.1794 0.65918,0 0.893555,-0.1977 0.238037,-0.2014 0.249023,-0.6263 0,-0.4907 -0.333252,-0.6481 -0.32959,-0.1575 -1.072998,-0.304 -0.739746,-0.1465 -1.116943,-0.4211 -0.373535,-0.2747 -0.373535,-0.9668 0.05493,-1.2049 1.904296,-1.2891 0.06226,0 0.17212,-0.01 0.109863,-0.01 0.15747,-0.01 0.670166,0 1.080323,0.095 0.410156,0.095 0.55664,0.1575 l 0.238037,0.8093 q -0.142822,-0.091 -0.560302,-0.2234 -0.417481,-0.1355 -1.131592,-0.1355 -0.483399,0 -0.754395,0.1135 -0.270996,0.1099 -0.281982,0.4724 z" />
    <path
       inkscape:connector-curvature="0"
       id="path4838"
       style="font-style:normal;font-variant:normal;font-weight:normal;font-stretch:normal;font-size:medium;line-height:125%;font-family:LilyUPC;-inkscape-font-specification:'LilyUPC, Normal';text-align:start;letter-spacing:0px;word-spacing:0px;writing-mode:lr-tb;text-anchor:start;fill:#ffffff;fill-opacity:1;stroke:none;stroke-width:1px;stroke-linecap:butt;stroke-linejoin:miter;stroke-opacity:1"
       d="m 41.25562,1031.8419 q 1.09497,0 1.76513,0.3955 0.67017,0.3919 0.95947,1.1646 0.28931,0.7727 0.28931,1.9519 0,1.2121 -0.3186,2.0068 -0.31861,0.791 -0.98877,1.1756 -0.66651,0.3845 -1.72119,0.3845 -1.01441,0 -1.66626,-0.3772 -0.65186,-0.3772 -0.96314,-1.1682 -0.31128,-0.791 -0.31128,-2.0215 0.011,-1.7578 0.73609,-2.6294 0.72876,-0.8716 2.21924,-0.8826 z m -1.30738,3.512 q 0.0403,1.2268 0.26001,1.9043 0.21973,0.6775 1.03272,0.6885 0.60058,0 0.89355,-0.3626 0.29663,-0.3662 0.37354,-0.9009 0.0806,-0.5383 0.0806,-1.3 0,-0.7801 -0.0696,-1.2927 -0.0659,-0.5127 -0.35522,-0.8899 -0.28931,-0.3809 -0.87891,-0.3846 -0.83862,0 -1.08764,0.6849 -0.24903,0.6848 -0.24903,1.853 z" />
    <path
       inkscape:connector-curvature="0"
       id="path4840"
       style="font-style:normal;font-variant:normal;font-weight:normal;font-stretch:normal;font-size:medium;line-height:125%;font-family:LilyUPC;-inkscape-font-specification:'LilyUPC, Normal';text-align:start;letter-spacing:0px;word-spacing:0px;writing-mode:lr-tb;text-anchor:start;fill:#ffffff;fill-opacity:1;stroke:none;stroke-width:1px;stroke-linecap:butt;stroke-linejoin:miter;stroke-opacity:1"
       d="m 46.22876,1037.4523 q 0,0.3112 0.22705,0.5163 0.23071,0.2051 0.56763,0.2051 0.55664,-0.015 0.79468,-0.2637 0.23803,-0.249 0.28564,-0.4138 v -3.6291 h 1.05103 v 4.9951 h -1.05103 v -0.4651 q -0.14282,0.1208 -0.6189,0.3003 -0.47607,0.1794 -1.31469,0.1794 -0.62256,-0.022 -0.98877,-0.3772 -0.36255,-0.3552 -0.36255,-1.0034 v -3.6291 h 1.40991 z" />
    <path
       inkscape:connector-curvature="0"
       id="path4842"
       style="font-style:normal;font-variant:normal;font-weight:normal;font-stretch:normal;font-size:medium;line-height:125%;font-family:LilyUPC;-inkscape-font-specification:'LilyUPC, Normal';text-align:start;letter-spacing:0px;word-spacing:0px;writing-mode:lr-tb;text-anchor:start;fill:#ffffff;fill-opacity:1;stroke:none;stroke-width:1px;stroke-linecap:butt;stroke-linejoin:miter;stroke-opacity:1"
       d="m 51.927,1034.4969 v 2.8968 q 0,0.4321 0.25635,0.6152 0.18311,0.1465 0.69214,0.1465 v 0.7068 q -0.0439,0 -0.15747,0.01 -0.11719,0.01 -0.26367,0.01 -0.96314,0 -1.40992,-0.3296 -0.52734,-0.3588 -0.52734,-1.2158 v -2.8345 h -0.94482 v -0.6298 h 0.94482 v -1.9959 H 51.927 v 1.9959 h 0.94849 v 0.6298 H 51.927 Z" />
    <path
       inkscape:connector-curvature="0"
       id="path4844"
       style="font-style:normal;font-variant:normal;font-weight:normal;font-stretch:normal;font-size:medium;line-height:125%;font-family:LilyUPC;-inkscape-font-specification:'LilyUPC, Normal';text-align:start;letter-spacing:0px;word-spacing:0px;writing-mode:lr-tb;text-anchor:start;fill:#ffffff;fill-opacity:1;stroke:none;stroke-width:1px;stroke-linecap:butt;stroke-linejoin:miter;stroke-opacity:1"
       d="m 54.44287,1035.0829 q 0,0.2893 0.5127,0.4358 0.51635,0.1428 1.05835,0.271 0.54199,0.1245 0.9375,0.4248 0.39917,0.2966 0.41748,0.9228 0,0.9156 -0.49439,1.3147 -0.49072,0.3992 -1.42822,0.4688 -0.11719,0.015 -0.35889,0.015 -0.6372,0 -1.09863,-0.099 -0.46143,-0.1025 -0.64087,-0.1684 l -0.19409,-0.8716 q 0.16479,0.1135 0.60425,0.2857 0.43945,0.1721 1.05835,0.1794 0.65918,0 0.89355,-0.1978 0.23804,-0.2014 0.24902,-0.6262 0,-0.4907 -0.33325,-0.6482 -0.32959,-0.1574 -1.073,-0.3039 -0.73974,-0.1465 -1.11694,-0.4212 -0.37353,-0.2746 -0.37353,-0.9668 0.0549,-1.2048 1.90429,-1.289 0.0623,0 0.17212,-0.01 0.10987,-0.01 0.15747,-0.01 0.67017,0 1.08032,0.095 0.41016,0.095 0.55665,0.1575 l 0.23803,0.8093 q -0.14282,-0.091 -0.5603,-0.2234 -0.41748,-0.1355 -1.13159,-0.1355 -0.4834,0 -0.7544,0.1136 -0.27099,0.1098 -0.28198,0.4724 z" />
    <path
       inkscape:connector-curvature="0"
       id="path882"
       style="font-style:italic;font-variant:normal;font-weight:normal;font-stretch:normal;font-size:4.23333311px;line-height:6.61458302px;font-family:LilyUPC;-inkscape-font-specification:'LilyUPC, Italic';font-variant-ligatures:normal;font-variant-caps:normal;font-variant-numeric:normal;font-feature-settings:normal;text-align:start;letter-spacing:0px;word-spacing:0px;writing-mode:lr-tb;text-anchor:start;display:inline;fill:#ffffff;fill-opacity:1;stroke:none;stroke-width:0.99999994"
       d="m 130.56836,1041.8426 q 2.1289,0 2.1289,2.3359 0,0.6133 -0.14453,1.3789 -0.21875,1.2539 -0.63281,2.086 -0.41407,0.8281 -1.08203,1.2422 -0.66407,0.414 -1.61329,0.414 h -3.26562 l 1.3125,-7.457 z m 0.60546,3.7148 q 0.12891,-0.7304 0.12891,-1.2656 0,-0.7422 -0.32031,-1.1289 -0.31641,-0.3906 -1.08594,-0.3906 h -1.08984 l -0.99219,5.5976 h 1.21875 q 0.97266,0 1.44531,-0.7109 0.47266,-0.7148 0.69531,-2.1016 z" />
    <path
       inkscape:connector-curvature="0"
       id="path884"
       style="font-style:italic;font-variant:normal;font-weight:normal;font-stretch:normal;font-size:4.23333311px;line-height:6.61458302px;font-family:LilyUPC;-inkscape-font-specification:'LilyUPC, Italic';font-variant-ligatures:normal;font-variant-caps:normal;font-variant-numeric:normal;font-feature-settings:normal;text-align:start;letter-spacing:0px;word-spacing:0px;writing-mode:lr-tb;text-anchor:start;display:inline;fill:#ffffff;fill-opacity:1;stroke:none;stroke-width:0.99999994"
       d="m 136.96679,1041.8114 q 1.41016,0 2.03907,0.5976 0.63281,0.5977 0.63281,1.8203 0,0.5742 -0.12891,1.3281 -0.33593,1.9493 -1.27734,2.8789 -0.94141,0.9258 -2.625,0.9258 -1.32422,0 -1.96094,-0.5976 -0.63281,-0.5977 -0.63281,-1.8633 0,-0.6875 0.1289,-1.3438 0.35157,-1.8828 1.28907,-2.8086 0.9414,-0.9257 2.53515,-0.9374 z m -2.0625,3.746 q -0.14453,0.9688 -0.14453,1.3907 0,1.3554 1.03906,1.375 0.64063,0 1.02344,-0.3867 0.38672,-0.3907 0.57031,-0.9649 0.1836,-0.5781 0.32422,-1.3828 0.16016,-0.9063 0.16016,-1.4102 0,-1.3086 -1.07031,-1.3281 -0.89844,0 -1.30469,0.7422 -0.40625,0.7422 -0.59766,1.9648 z" />
    <path
       inkscape:connector-curvature="0"
       id="path886"
       style="font-style:italic;font-variant:normal;font-weight:normal;font-stretch:normal;font-size:4.23333311px;line-height:6.61458302px;font-family:LilyUPC;-inkscape-font-specification:'LilyUPC, Italic';font-variant-ligatures:normal;font-variant-caps:normal;font-variant-numeric:normal;font-feature-settings:normal;text-align:start;letter-spacing:0px;word-spacing:0px;writing-mode:lr-tb;text-anchor:start;display:inline;fill:#ffffff;fill-opacity:1;stroke:none;stroke-width:0.99999994"
       d="m 146.47851,1044.0028 q -0.14842,0.9179 -0.60547,1.414 -0.45312,0.4922 -1.06641,0.6524 -0.61328,0.1602 -1.41406,0.1602 h -1.53515 l -0.54688,3.0703 h -1.69531 l 1.3125,-7.457 h 3.42578 q 1.04297,0 1.60938,0.3515 0.5664,0.3477 0.5664,1.25 0,0.2577 -0.0508,0.5586 z m -1.58203,-0.047 q 0,-1.1836 -0.89844,-1.1836 h -1.53515 l -0.44531,2.543 h 1.48827 q 0.57813,0 0.92969,-0.293 0.35157,-0.297 0.46094,-1.0664 z" />
    <path
       inkscape:connector-curvature="0"
       id="path888"
       style="font-style:italic;font-variant:normal;font-weight:normal;font-stretch:normal;font-size:4.23333311px;line-height:6.61458302px;font-family:LilyUPC;-inkscape-font-specification:'LilyUPC, Italic';font-variant-ligatures:normal;font-variant-caps:normal;font-variant-numeric:normal;font-feature-settings:normal;text-align:start;letter-spacing:0px;word-spacing:0px;writing-mode:lr-tb;text-anchor:start;display:inline;fill:#ffffff;fill-opacity:1;stroke:none;stroke-width:0.99999994"
       d="m 147.4746,1041.8426 h 5.07422 l -0.16018,0.9297 h -3.3789 l -0.38281,2.1758 h 2.8164 l -0.16014,0.9258 h -2.81641 l -0.44921,2.496 h 3.42577 l -0.16013,0.9297 h -5.12109 z" />
    <path
       inkscape:connector-curvature="0"
       id="path890"
       style="font-style:italic;font-variant:normal;font-weight:normal;font-stretch:normal;font-size:4.23333311px;line-height:6.61458302px;font-family:LilyUPC;-inkscape-font-specification:'LilyUPC, Italic';font-variant-ligatures:normal;font-variant-caps:normal;font-variant-numeric:normal;font-feature-settings:normal;text-align:start;letter-spacing:0px;word-spacing:0px;writing-mode:lr-tb;text-anchor:start;display:inline;fill:#ffffff;fill-opacity:1;stroke:none;stroke-width:0.99999994"
       d="m 153.63866,1049.2996 h -1.69531 l 1.3125,-7.457 h 5.07421 l -0.16013,0.9297 h -3.37892 l -0.38282,2.1758 h 2.81641 l -0.16014,0.9258 h -2.8164 z" />
    <path
       inkscape:connector-curvature="0"
       id="path892"
       style="font-style:italic;font-variant:normal;font-weight:normal;font-stretch:normal;font-size:4.23333311px;line-height:6.61458302px;font-family:LilyUPC;-inkscape-font-specification:'LilyUPC, Italic';font-variant-ligatures:normal;font-variant-caps:normal;font-variant-numeric:normal;font-feature-settings:normal;text-align:start;letter-spacing:0px;word-spacing:0px;writing-mode:lr-tb;text-anchor:start;display:inline;fill:#ffffff;fill-opacity:1;stroke:none;stroke-width:0.99999994"
       d="m 158.8496,1041.8426 h 5.07421 l -0.16013,0.9297 h -3.37891 l -0.38281,2.1758 h 2.8164 l -0.16014,0.9258 h -2.8164 l -0.44922,2.496 h 3.42578 l -0.16014,0.9297 h -5.12114 z" />
    <path
       inkscape:connector-curvature="0"
       id="path894"
       style="font-style:italic;font-variant:normal;font-weight:normal;font-stretch:normal;font-size:4.23333311px;line-height:6.61458302px;font-family:LilyUPC;-inkscape-font-specification:'LilyUPC, Italic';font-variant-ligatures:normal;font-variant-caps:normal;font-variant-numeric:normal;font-feature-settings:normal;text-align:start;letter-spacing:0px;word-spacing:0px;writing-mode:lr-tb;text-anchor:start;display:inline;fill:#ffffff;fill-opacity:1;stroke:none;stroke-width:0.99999994"
       d="m 167.9121,1041.8426 q 2.1289,0 2.1289,2.3359 0,0.6133 -0.14453,1.3789 -0.21876,1.2539 -0.63281,2.086 -0.41406,0.8281 -1.08203,1.2422 -0.66406,0.414 -1.61328,0.414 h -3.26563 l 1.31251,-7.457 z m 0.60547,3.7148 q 0.12891,-0.7304 0.12891,-1.2656 0,-0.7422 -0.32031,-1.1289 -0.31642,-0.3906 -1.08594,-0.3906 h -1.08985 l -0.99219,5.5976 h 1.21875 q 0.97266,0 1.44531,-0.7109 0.47266,-0.7148 0.69532,-2.1016 z" />
    <path
       style="font-style:normal;font-variant:normal;font-weight:normal;font-stretch:normal;font-size:medium;line-height:25px;font-family:LilyUPC;-inkscape-font-specification:LilyUPC;letter-spacing:0px;word-spacing:0px;fill:#ffffff;fill-opacity:1;stroke:none"
       inkscape:connector-curvature="0"
       id="path864"
       d="m 110.92188,680.72937 q 0,0.42578 0.70312,0.64453 0.70703,0.21485 1.42188,0.39844 0.71875,0.18359 1.2539,0.63672 0.53516,0.44922 0.55469,1.3789 0,0.92188 -0.30859,1.48438 -0.3086,0.5625 -0.86719,0.82422 -0.55469,0.25781 -1.35156,0.3125 -0.19141,0.0156 -0.54297,0.0156 -0.58203,0 -1.10157,-0.0859 -0.51562,-0.0859 -0.85156,-0.1875 -0.33594,-0.10547 -0.33594,-0.125 l -0.28906,-1.13672 q 0.004,0 0.34766,0.14843 0.34375,0.14844 0.82422,0.27344 0.48437,0.125 1.07031,0.14063 0.94531,0 1.26953,-0.30469 0.32813,-0.30859 0.32813,-0.92969 0,-0.73828 -0.44141,-0.96875 -0.44141,-0.23437 -1.4375,-0.44531 -0.99219,-0.21484 -1.49219,-0.61719 -0.5,-0.40625 -0.5,-1.42578 0.0234,-0.64844 0.36328,-1.07031 0.33985,-0.42188 0.89063,-0.625 0.55469,-0.20703 1.24219,-0.23828 1.14453,0 1.79296,0.13281 0.64844,0.12891 0.86329,0.21875 l 0.30468,1.19922 q 0,0 -0.3125,-0.14063 -0.3125,-0.14062 -0.80078,-0.2539 -0.48828,-0.11719 -1.16015,-0.11719 -0.65235,0 -1.02344,0.15625 -0.3711,0.15625 -0.41406,0.70703 z" />
    <path
       style="font-style:normal;font-variant:normal;font-weight:normal;font-stretch:normal;font-size:medium;line-height:25px;font-family:LilyUPC;-inkscape-font-specification:LilyUPC;letter-spacing:0px;word-spacing:0px;fill:#ffffff;fill-opacity:1;stroke:none"
       inkscape:connector-curvature="0"
       id="path866"
       d="m 122.33984,681.04968 -1.80468,5.48828 -1.73047,-4.0625 -1.64844,4.0625 -2.01562,-5.48828 h 1.51953 l 0.8164,2.35157 0.76953,-1.83985 -0.16015,-0.51172 h 1.60156 l 0.95703,2.27344 0.78516,-2.27344 z" />
    <path
       style="font-style:normal;font-variant:normal;font-weight:normal;font-stretch:normal;font-size:medium;line-height:25px;font-family:LilyUPC;-inkscape-font-specification:LilyUPC;letter-spacing:0px;word-spacing:0px;fill:#ffffff;fill-opacity:1;stroke:none"
       inkscape:connector-curvature="0"
       id="path868"
       d="m 122.66406,686.36218 v -5.32812 h 1.48828 v 5.32812 z m 0.75391,-7.47265 q 0.39844,0 0.62109,0.25 0.22657,0.25 0.22657,0.59765 0,0.35547 -0.23047,0.60938 -0.22657,0.2539 -0.63282,0.2539 -0.39062,0 -0.62109,-0.2539 -0.23047,-0.25781 -0.23047,-0.59375 0,-0.34375 0.23047,-0.60156 0.23047,-0.26172 0.63672,-0.26172 z" />
    <path
       style="font-style:normal;font-variant:normal;font-weight:normal;font-stretch:normal;font-size:medium;line-height:25px;font-family:LilyUPC;-inkscape-font-specification:LilyUPC;letter-spacing:0px;word-spacing:0px;fill:#ffffff;fill-opacity:1;stroke:none"
       inkscape:connector-curvature="0"
       id="path870"
       d="m 127.04297,681.70593 v 3.08985 q 0,0.46093 0.27344,0.65625 0.19531,0.15625 0.73828,0.15625 v 0.7539 q -0.0469,0.004 -0.16797,0.008 -0.125,0.008 -0.28125,0.008 -1.02734,0 -1.50391,-0.35156 -0.5625,-0.38282 -0.5625,-1.29688 v -3.02344 h -1.00781 v -0.67187 h 1.00781 v -2.12891 h 1.50391 v 2.12891 h 1.01172 v 0.67187 z" />
    <path
       style="font-style:normal;font-variant:normal;font-weight:normal;font-stretch:normal;font-size:medium;line-height:25px;font-family:LilyUPC;-inkscape-font-specification:LilyUPC;letter-spacing:0px;word-spacing:0px;fill:#ffffff;fill-opacity:1;stroke:none"
       inkscape:connector-curvature="0"
       id="path872"
       d="m 132.54297,686.13953 q 0,0.0312 -0.45313,0.125 -0.44922,0.0937 -1.14843,0.11328 -0.97657,0 -1.54688,-0.27344 -0.57031,-0.27344 -0.82422,-0.89062 -0.25,-0.6211 -0.25,-1.69922 0.0312,-0.85938 0.27344,-1.40625 0.24609,-0.54688 0.77734,-0.81641 0.53516,-0.27344 1.42578,-0.27344 0.56641,0.0117 1.01563,0.0977 0.45312,0.0859 0.64844,0.14062 l 0.16015,0.76954 q -0.14453,-0.0742 -0.53125,-0.1836 -0.38672,-0.10937 -0.97265,-0.12109 -0.76953,0 -1.02344,0.50781 -0.25391,0.50781 -0.25391,1.28516 0,0.9375 0.20703,1.52734 0.21094,0.58594 0.86329,0.63281 0.51953,0 0.89453,-0.0898 0.375,-0.0898 0.60156,-0.19531 0.23047,-0.10938 0.23047,-0.13282 z" />
    <path
       style="font-style:normal;font-variant:normal;font-weight:normal;font-stretch:normal;font-size:medium;line-height:25px;font-family:LilyUPC;-inkscape-font-specification:LilyUPC;letter-spacing:0px;word-spacing:0px;fill:#ffffff;fill-opacity:1;stroke:none"
       inkscape:connector-curvature="0"
       id="path874"
       d="m 133.11719,686.36218 v -7.45703 h 1.5039 V 681.37 q 0,0 0,0 0,-0.004 0.17969,-0.10157 0.1875,-0.0976 0.49219,-0.17968 0.30859,-0.082 0.73437,-0.0859 0.59766,0 0.98438,0.17969 0.38672,0.17578 0.55859,0.46093 0.17188,0.28516 0.17188,0.60547 v 4.11328 h -1.1211 V 682.538 q 0,-0.48046 -0.22656,-0.65625 -0.22656,-0.17578 -0.76562,-0.17578 -0.3086,0.0156 -0.53516,0.13282 -0.22266,0.11328 -0.34766,0.24218 -0.125,0.125 -0.125,0.15235 v 4.1289 z" />
    <path
       style="font-style:normal;font-variant:normal;font-weight:normal;font-stretch:normal;font-size:medium;line-height:25px;font-family:LilyUPC;-inkscape-font-specification:LilyUPC;letter-spacing:0px;word-spacing:0px;fill:#ffffff;fill-opacity:1;stroke:none"
       inkscape:connector-curvature="0"
       id="path876"
       d="m 147.84375,681.37 -2.09766,5.13671 -2.17578,-5.13671 v 4.99218 h -1.19922 v -7.45703 h 1.88672 l 1.7461,3.90625 1.67968,-3.90625 h 1.85547 v 7.45703 h -1.69531 z" />
    <path
       style="font-style:normal;font-variant:normal;font-weight:normal;font-stretch:normal;font-size:medium;line-height:25px;font-family:LilyUPC;-inkscape-font-specification:LilyUPC;letter-spacing:0px;word-spacing:0px;fill:#ffffff;fill-opacity:1;stroke:none"
       inkscape:connector-curvature="0"
       id="path878"
       d="m 153.51953,686.36218 v -0.55859 q -0.0625,0.14453 -0.42187,0.35937 -0.35547,0.21485 -1.21094,0.21485 -0.73047,-0.0273 -1.21485,-0.375 -0.48437,-0.34766 -0.49609,-1.09766 0,-0.80469 0.57422,-1.20703 0.57812,-0.40234 1.73047,-0.48828 0.53125,-0.043 0.8164,-0.26953 0.28907,-0.23047 0.28907,-0.51563 0,-0.28906 -0.26563,-0.49609 -0.26172,-0.20703 -0.71094,-0.20703 -0.92578,0 -1.4414,0.34375 -0.51172,0.33984 -0.67188,0.57031 l 0.22266,-1.05859 q 0,-0.0274 0.24219,-0.16797 0.24609,-0.14063 0.68359,-0.26172 0.4375,-0.125 1.04297,-0.12891 1.23437,0 1.78516,0.42188 0.55078,0.41797 0.55078,1.09765 v 3.82422 z m -0.73437,-0.83203 q 0.73437,-0.19922 0.73437,-0.64062 v -1.21485 q -0.004,0.0117 -0.0547,0.11328 -0.0508,0.0977 -0.23047,0.19532 -0.17968,0.0976 -0.54687,0.14062 -0.625,0.0859 -0.95313,0.28125 -0.32812,0.19141 -0.32812,0.66016 0.0508,0.54297 0.86719,0.54297 0.24609,0 0.51172,-0.0781 z" />
    <path
       style="font-style:normal;font-variant:normal;font-weight:normal;font-stretch:normal;font-size:medium;line-height:25px;font-family:LilyUPC;-inkscape-font-specification:LilyUPC;letter-spacing:0px;word-spacing:0px;fill:#ffffff;fill-opacity:1;stroke:none"
       inkscape:connector-curvature="0"
       id="path880"
       d="m 157.88672,681.70593 v 3.08985 q 0,0.46093 0.27344,0.65625 0.19531,0.15625 0.73828,0.15625 v 0.7539 q -0.0469,0.004 -0.16797,0.008 -0.125,0.008 -0.28125,0.008 -1.02735,0 -1.50391,-0.35156 -0.5625,-0.38282 -0.5625,-1.29688 V 681.7063 H 155.375 v -0.67187 h 1.00781 v -2.12891 h 1.50391 v 2.12891 h 1.01172 v 0.67187 z" />
    <path
       style="font-style:normal;font-variant:normal;font-weight:normal;font-stretch:normal;font-size:medium;line-height:25px;font-family:LilyUPC;-inkscape-font-specification:LilyUPC;letter-spacing:0px;word-spacing:0px;fill:#ffffff;fill-opacity:1;stroke:none"
       inkscape:connector-curvature="0"
       id="path883"
       d="m 159.24219,686.36218 v -5.32812 h 1.5039 v 0.65625 q 0.008,-0.008 0.0898,-0.10938 0.0859,-0.10547 0.2539,-0.21875 0.16797,-0.11328 0.45703,-0.21484 0.3086,-0.12891 0.78516,-0.12891 0.36719,0 0.46094,0.0312 l 0.1289,0.76953 q -0.27343,-0.0664 -0.51171,-0.0664 -0.51954,0 -0.86329,0.19531 -0.38671,0.19141 -0.59375,0.52344 -0.20703,0.33203 -0.20703,0.60937 v 3.28125 z" />
    <path
       style="font-style:normal;font-variant:normal;font-weight:normal;font-stretch:normal;font-size:medium;line-height:25px;font-family:LilyUPC;-inkscape-font-specification:LilyUPC;letter-spacing:0px;word-spacing:0px;fill:#ffffff;fill-opacity:1;stroke:none"
       inkscape:connector-curvature="0"
       id="path885"
       d="m 163.35156,686.36218 v -5.32812 h 1.48828 v 5.32812 z m 0.75391,-7.47265 q 0.39844,0 0.62109,0.25 0.22656,0.25 0.22656,0.59765 0,0.35547 -0.23046,0.60938 -0.22657,0.2539 -0.63282,0.2539 -0.39062,0 -0.62109,-0.2539 -0.23047,-0.25781 -0.23047,-0.59375 0,-0.34375 0.23047,-0.60156 0.23047,-0.26172 0.63672,-0.26172 z" />
    <path
       style="font-style:normal;font-variant:normal;font-weight:normal;font-stretch:normal;font-size:medium;line-height:25px;font-family:LilyUPC;-inkscape-font-specification:LilyUPC;letter-spacing:0px;word-spacing:0px;fill:#ffffff;fill-opacity:1;stroke:none"
       inkscape:connector-curvature="0"
       id="path887"
       d="m 165.44531,681.03406 h 1.71094 l 0.94531,1.5039 1.02344,-1.5039 h 1.03906 l -1.5664,2.25781 1.90234,3.07031 h -1.72656 l -1.10547,-1.77734 -1.23047,1.77734 h -1.10547 l 1.80859,-2.57422 z" />
    <path
       style="font-style:normal;font-variant:normal;font-weight:normal;font-stretch:normal;font-size:medium;line-height:25px;font-family:LilyUPC;-inkscape-font-specification:LilyUPC;letter-spacing:0px;word-spacing:0px;fill:#ffffff;fill-opacity:1;stroke:none"
       inkscape:connector-curvature="0"
       id="path930"
       d="m 11.067078,730.72835 q 0,0.35482 0.585937,0.53711 0.589193,0.17904 1.184896,0.33203 0.598959,0.153 1.044922,0.5306 0.445964,0.37435 0.46224,1.14909 0,0.76823 -0.257162,1.23698 -0.257161,0.46875 -0.722656,0.68685 -0.46224,0.21484 -1.126302,0.26042 -0.159505,0.013 -0.452474,0.013 -0.485026,0 -0.917969,-0.0716 -0.429687,-0.0716 -0.709635,-0.15625 -0.279948,-0.0879 -0.279948,-0.10416 l -0.240885,-0.94727 q 0.0033,0 0.289713,0.1237 0.286458,0.1237 0.686849,0.22786 0.403646,0.10417 0.891927,0.11719 0.78776,0 1.057943,-0.25391 0.273437,-0.25716 0.273437,-0.77474 0,-0.61523 -0.367838,-0.80729 -0.367839,-0.19531 -1.197917,-0.37109 -0.826823,-0.17904 -1.243489,-0.51432 Q 9.612,731.604 9.612,730.75439 q 0.01953,-0.54036 0.302734,-0.89192 0.283204,-0.35156 0.742188,-0.52084 0.462239,-0.17252 1.035156,-0.19856 0.953776,0 1.49414,0.11067 0.540365,0.10743 0.719402,0.1823 l 0.253906,0.99934 q 0,0 -0.260417,-0.11718 -0.260417,-0.11719 -0.667318,-0.21159 -0.406901,-0.0977 -0.966796,-0.0977 -0.54362,0 -0.852865,0.13021 -0.309245,0.13021 -0.345052,0.58919 z" />
    <path
       style="font-style:normal;font-variant:normal;font-weight:normal;font-stretch:normal;font-size:medium;line-height:25px;font-family:LilyUPC;-inkscape-font-specification:LilyUPC;letter-spacing:0px;word-spacing:0px;fill:#ffffff;fill-opacity:1;stroke:none"
       inkscape:connector-curvature="0"
       id="path932"
       d="m 16.076844,734.16911 q 0,0.27669 0.201822,0.45898 0.205079,0.18229 0.504558,0.18229 0.494791,-0.013 0.70638,-0.23437 0.211589,-0.22136 0.253906,-0.36784 v -3.22591 h 0.934245 v 4.4401 H 17.74351 v -0.41341 q -0.126953,0.10742 -0.55013,0.26693 -0.423177,0.1595 -1.16862,0.1595 -0.553385,-0.0195 -0.878906,-0.33528 -0.322266,-0.31576 -0.322266,-0.89193 v -3.22591 h 1.253256 z" />
    <path
       style="font-style:normal;font-variant:normal;font-weight:normal;font-stretch:normal;font-size:medium;line-height:25px;font-family:LilyUPC;-inkscape-font-specification:LilyUPC;letter-spacing:0px;word-spacing:0px;fill:#ffffff;fill-opacity:1;stroke:none"
       inkscape:connector-curvature="0"
       id="path934"
       d="m 19.289734,735.42236 v -4.4401 h 1.253255 v 0.36133 q 0.38737,-0.38737 1.188151,-0.38737 0.566407,0 0.794271,0.20508 0.23112,0.20507 0.270183,0.34179 0.0033,-0.007 0.130208,-0.14648 0.130208,-0.13998 0.380859,-0.25391 0.250651,-0.11719 0.638021,-0.13346 0.712891,0 1.067708,0.32552 0.358073,0.32552 0.358073,0.84635 v 3.28125 h -0.960286 v -3.17382 q 0,-0.59896 -0.719401,-0.59896 -0.377604,0.026 -0.540365,0.27343 -0.159505,0.2474 -0.192057,0.40691 v 3.09244 h -0.960286 v -3.17382 q 0,-0.25717 -0.175782,-0.42644 -0.175781,-0.17252 -0.546875,-0.17252 -0.397135,0.0391 -0.553385,0.29948 -0.15625,0.25716 -0.179037,0.41992 v 3.05338 z" />
    <path
       style="font-style:normal;font-variant:normal;font-weight:normal;font-stretch:normal;font-size:medium;line-height:25px;font-family:LilyUPC;-inkscape-font-specification:LilyUPC;letter-spacing:0px;word-spacing:0px;fill:#ffffff;fill-opacity:1;stroke:none"
       inkscape:connector-curvature="0"
       id="path925"
       d="m 19.162109,717.14085 q 0.973307,0 1.56901,0.35156 0.595703,0.34831 0.852865,1.03516 0.257161,0.68684 0.257161,1.73502 0,1.07748 -0.283203,1.78386 -0.283203,0.70312 -0.878906,1.04492 -0.592448,0.34179 -1.529948,0.34179 -0.901693,0 -1.48112,-0.33528 -0.579427,-0.33529 -0.856119,-1.03841 -0.276693,-0.70313 -0.276693,-1.79688 0.0098,-1.5625 0.654297,-2.33724 0.647786,-0.77474 1.972656,-0.7845 z M 18,720.26259 q 0.03581,1.0905 0.231119,1.69271 0.195313,0.60221 0.917969,0.61198 0.533854,0 0.794271,-0.32227 0.263672,-0.32552 0.332031,-0.80078 0.07161,-0.47851 0.07161,-1.1556 0,-0.69336 -0.06185,-1.14909 -0.05859,-0.45572 -0.315755,-0.79101 -0.257162,-0.33854 -0.78125,-0.3418 -0.745443,0 -0.966797,0.60873 -0.221354,0.60872 -0.221354,1.64713 z" />
    <path
       style="font-style:normal;font-variant:normal;font-weight:normal;font-stretch:normal;font-size:medium;line-height:25px;font-family:LilyUPC;-inkscape-font-specification:LilyUPC;letter-spacing:0px;word-spacing:0px;fill:#ffffff;fill-opacity:1;stroke:none"
       inkscape:connector-curvature="0"
       id="path927"
       d="m 22.329427,723.38108 v -4.4401 h 1.253255 v 0.54687 q 0.0065,-0.007 0.07487,-0.0911 0.07161,-0.0879 0.211588,-0.1823 0.139974,-0.0944 0.38086,-0.17903 0.257161,-0.10742 0.654296,-0.10742 0.30599,0 0.384115,0.026 l 0.107422,0.64127 q -0.227865,-0.0553 -0.426432,-0.0553 -0.432943,0 -0.719401,0.16276 -0.322266,0.1595 -0.494792,0.43619 -0.172526,0.2767 -0.172526,0.50782 v 2.73437 z" />
    <path
       style="font-style:normal;font-variant:normal;font-weight:normal;font-stretch:normal;font-size:medium;line-height:25px;font-family:LilyUPC;-inkscape-font-specification:LilyUPC;letter-spacing:0px;word-spacing:0px;fill:#ffffff;fill-opacity:1;stroke:none"
       inkscape:connector-curvature="0"
       id="path918"
       d="m 14.826547,706.24988 -1.748047,4.2806 -1.813151,-4.2806 v 4.16015 H 10.266 v -6.21419 h 1.572266 l 1.455078,3.25521 1.399739,-3.25521 h 1.546224 v 6.21419 h -1.41276 z" />
    <path
       style="font-style:normal;font-variant:normal;font-weight:normal;font-stretch:normal;font-size:medium;line-height:25px;font-family:LilyUPC;-inkscape-font-specification:LilyUPC;letter-spacing:0px;word-spacing:0px;fill:#ffffff;fill-opacity:1;stroke:none"
       inkscape:connector-curvature="0"
       id="path920"
       d="m 18.156625,709.15678 q 0,0.27669 0.201823,0.45898 0.205078,0.1823 0.504557,0.1823 0.494792,-0.013 0.70638,-0.23438 0.211589,-0.22135 0.253907,-0.36784 v -3.22591 h 0.934244 v 4.4401 h -0.934244 v -0.41341 q -0.126954,0.10742 -0.550131,0.26693 -0.423177,0.15951 -1.168619,0.15951 -0.553386,-0.0195 -0.878907,-0.33529 -0.322265,-0.31576 -0.322265,-0.89193 v -3.22591 h 1.253255 z" />
    <path
       style="font-style:normal;font-variant:normal;font-weight:normal;font-stretch:normal;font-size:medium;line-height:25px;font-family:LilyUPC;-inkscape-font-specification:LilyUPC;letter-spacing:0px;word-spacing:0px;fill:#ffffff;fill-opacity:1;stroke:none"
       inkscape:connector-curvature="0"
       id="path922"
       d="m 21.317432,705.96993 h 1.425781 l 0.787761,1.25326 0.852864,-1.25326 h 0.865886 l -1.305339,1.88151 1.585287,2.55859 H 24.09087 l -0.921224,-1.48112 -1.025391,1.48112 h -0.921224 l 1.507162,-2.14518 z" />
  </g>
</svg>
